<svg xmlns="http://www.w3.org/2000/svg" xmlns:xlink="http://www.w3.org/1999/xlink" width="860pt" height="244" viewBox="0 0 860.12 182.6"><g id="graph0" class="graph" transform="scale(1 1) rotate(0) translate(4 178.6)"><title>StorageDiagram</title><polygon fill="#fff" stroke="transparent" points="-4 4 -4 -178.6 856.12 -178.6 856.12 4 -4 4"/><g id="node1" class="node"><title>1</title><polygon fill="#f2f2f2" stroke="#000" points="0 -.5 0 -174.1 852.12 -174.1 852.12 -.5 0 -.5"/><text x="426.06" y="-157.5" font-family="Courier New" font-size="14" text-anchor="middle">D &lt;&lt;Contract&gt;&gt;</text><polyline fill="none" stroke="#000" points="0 -149.3 852.12 -149.3"/><text x="24.8" y="-132.7" font-family="Courier New" font-size="14" text-anchor="middle">slot</text><polyline fill="none" stroke="#000" points="0 -124.5 49.61 -124.5"/><text x="24.8" y="-107.9" font-family="Courier New" font-size="14" text-anchor="middle">0</text><polyline fill="none" stroke="#000" points="0 -99.7 49.61 -99.7"/><text x="24.8" y="-83.1" font-family="Courier New" font-size="14" text-anchor="middle">1</text><polyline fill="none" stroke="#000" points="0 -74.9 49.61 -74.9"/><text x="24.8" y="-58.3" font-family="Courier New" font-size="14" text-anchor="middle">2</text><polyline fill="none" stroke="#000" points="0 -50.1 49.61 -50.1"/><text x="24.8" y="-33.5" font-family="Courier New" font-size="14" text-anchor="middle">3</text><polyline fill="none" stroke="#000" points="0 -25.3 49.61 -25.3"/><text x="24.8" y="-8.7" font-family="Courier New" font-size="14" text-anchor="middle">4</text><polyline fill="none" stroke="#000" points="49.61 -.5 49.61 -149.3"/><text x="450.86" y="-132.7" font-family="Courier New" font-size="14" text-anchor="middle">type: &lt;inherited contract&gt;.variable (bytes)</text><polyline fill="none" stroke="#000" points="49.61 -124.5 852.12 -124.5"/><text x="120.62" y="-107.9" font-family="Courier New" font-size="14" text-anchor="middle">unallocated (9)</text><polyline fill="none" stroke="#000" points="191.63 -99.7 191.63 -124.5"/><text x="271.04" y="-107.9" font-family="Courier New" font-size="14" text-anchor="middle">bool: C.flagC (1)</text><polyline fill="none" stroke="#000" points="350.45 -99.7 350.45 -124.5"/><text x="429.86" y="-107.9" font-family="Courier New" font-size="14" text-anchor="middle">bool: B.flagB (1)</text><polyline fill="none" stroke="#000" points="509.27 -99.7 509.27 -124.5"/><text x="605.49" y="-107.9" font-family="Courier New" font-size="14" text-anchor="middle">address: A.token (20)</text><polyline fill="none" stroke="#000" points="701.7 -99.7 701.7 -124.5"/><text x="776.91" y="-107.9" font-family="Courier New" font-size="14" text-anchor="middle">bool: A.flag (1)</text><polyline fill="none" stroke="#000" points="49.61 -99.7 852.12 -99.7"/><text x="450.52" y="-83.1" font-family="Courier New" font-size="14" text-anchor="middle">uint256: A._count (32)</text><polyline fill="none" stroke="#000" points="49.61 -74.9 852.12 -74.9"/><text x="450.52" y="-58.3" font-family="Courier New" font-size="14" text-anchor="middle">uint256: B._total (32)</text><polyline fill="none" stroke="#000" points="49.61 -50.1 852.12 -50.1"/><text x="450.62" y="-33.5" font-family="Courier New" font-size="14" text-anchor="middle">uint256: C2.max (32)</text><polyline fill="none" stroke="#000" points="49.61 -25.3 852.12 -25.3"/><text x="143.32" y="-8.7" font-family="Courier New" font-size="14" text-anchor="middle">unallocated (10)</text><polyline fill="none" stroke="#000" points="237.03 -.5 237.03 -25.3"/><text x="327.04" y="-8.7" font-family="Courier New" font-size="14" text-anchor="middle">bool: flagD (1)</text><polyline fill="none" stroke="#000" points="417.05 -.5 417.05 -25.3"/><text x="519.16" y="-8.7" font-family="Courier New" font-size="14" text-anchor="middle">uint8: F.index (1)</text><polyline fill="none" stroke="#000" points="621.27 -.5 621.27 -25.3"/><text x="736.49" y="-8.7" font-family="Courier New" font-size="14" text-anchor="middle">address: E.owner (20)</text></g></g></svg>